<svg width="673" height="100" viewBox="0 0 673 100" fill="none" xmlns="http://www.w3.org/2000/svg">
<g clip-path="url(#clip0_825_3903)">
<path d="M130 21.2996H144.321V43.5018H168.841V21.2996H183.162V78.7004H168.841V55.4152H144.321V78.7004H130V21.2996Z" fill="black"/>
<path d="M222.257 80C218.352 80 214.627 79.4224 211.083 78.2671C207.611 77.0397 204.573 75.2347 201.969 72.852C199.365 70.3971 197.304 67.3285 195.785 63.6462C194.266 59.8917 193.507 55.5235 193.507 50.5415V48.3755C193.507 43.6101 194.23 39.4585 195.677 35.9206C197.123 32.3827 199.112 29.4585 201.644 27.148C204.175 24.7653 207.104 22.9964 210.432 21.8412C213.759 20.6137 217.339 20 221.172 20C230.214 20 237.085 22.3827 241.786 27.148C246.488 31.9134 248.838 38.8087 248.838 47.8339V53.8989H208.153C208.226 56.426 208.66 58.6282 209.455 60.5054C210.251 62.3105 211.3 63.7906 212.601 64.9458C213.903 66.1011 215.386 66.9675 217.05 67.5451C218.786 68.0505 220.521 68.3032 222.257 68.3032C225.946 68.3032 228.731 67.7617 230.611 66.6787C232.492 65.5957 233.83 64.0072 234.626 61.9134H247.753C246.596 67.9061 243.739 72.4188 239.182 75.4513C234.626 78.4838 228.984 80 222.257 80ZM221.715 31.6968C220.051 31.6968 218.388 31.9134 216.724 32.3466C215.133 32.7798 213.723 33.4657 212.493 34.4043C211.263 35.343 210.251 36.6065 209.455 38.1949C208.66 39.7834 208.226 41.6968 208.153 43.935H234.951C234.879 41.5523 234.481 39.5668 233.758 37.9783C233.107 36.3899 232.166 35.1264 230.937 34.1877C229.78 33.2491 228.405 32.5993 226.814 32.2383C225.223 31.8773 223.523 31.6968 221.715 31.6968Z" fill="black"/>
<path d="M272.09 33.213H253.754V21.2996H304.746V33.213H286.411V78.7004H272.09V33.213Z" fill="black"/>
<path d="M338.379 80C334.473 80 330.748 79.4224 327.204 78.2671C323.732 77.0397 320.695 75.1986 318.091 72.7437C315.487 70.2888 313.426 67.2202 311.907 63.5379C310.388 59.8556 309.628 55.5235 309.628 50.5415V48.3755C309.628 43.6823 310.388 39.5668 311.907 36.0289C313.426 32.491 315.487 29.5307 318.091 27.148C320.695 24.7653 323.732 22.9964 327.204 21.8412C330.748 20.6137 334.473 20 338.379 20C342.285 20 345.974 20.6137 349.445 21.8412C352.917 22.9964 355.955 24.7653 358.559 27.148C361.235 29.5307 363.332 32.491 364.851 36.0289C366.37 39.5668 367.13 43.6823 367.13 48.3755V50.5415C367.13 55.4513 366.37 59.7473 364.851 63.4296C363.332 67.1119 361.235 70.1805 358.559 72.6354C355.955 75.0903 352.917 76.9314 349.445 78.1588C345.974 79.3863 342.285 80 338.379 80ZM338.379 67.87C342.429 67.87 345.793 66.426 348.469 63.5379C351.217 60.6498 352.592 56.3177 352.592 50.5415V48.3755C352.592 43.1047 351.217 39.0975 348.469 36.3538C345.793 33.5379 342.429 32.13 338.379 32.13C334.256 32.13 330.857 33.5379 328.181 36.3538C325.504 39.0975 324.166 43.1047 324.166 48.3755V50.5415C324.166 56.3899 325.504 60.7581 328.181 63.6462C330.857 66.4621 334.256 67.87 338.379 67.87Z" fill="black"/>
<path d="M376.877 80C376.299 80 375.575 79.9639 374.707 79.8917C373.839 79.8917 373.116 79.8195 372.537 79.6751V66.787C372.899 66.8592 373.442 66.8953 374.165 66.8953C375.539 66.8953 376.732 66.4982 377.745 65.704C378.758 64.8375 379.589 63.3935 380.24 61.3718C380.964 59.3502 381.47 56.6787 381.759 53.3574C382.121 49.9639 382.302 45.7762 382.302 40.7942V21.2996H427.869V78.7004H413.548V33.213H395.538V42.9603C395.538 50.3971 395.14 56.5343 394.345 61.3718C393.621 66.1372 392.464 69.8917 390.873 72.6354C389.354 75.3791 387.401 77.2924 385.014 78.3755C382.7 79.4585 379.987 80 376.877 80Z" fill="black"/>
<path d="M466.897 80C462.991 80 459.266 79.4224 455.722 78.2671C452.25 77.0397 449.212 75.1986 446.609 72.7437C444.005 70.2888 441.943 67.2202 440.424 63.5379C438.906 59.8556 438.146 55.5235 438.146 50.5415V48.3755C438.146 43.6823 438.906 39.5668 440.424 36.0289C441.943 32.491 444.005 29.5307 446.609 27.148C449.212 24.7653 452.25 22.9964 455.722 21.8412C459.266 20.6137 462.991 20 466.897 20C470.803 20 474.491 20.6137 477.963 21.8412C481.435 22.9964 484.473 24.7653 487.077 27.148C489.753 29.5307 491.85 32.491 493.369 36.0289C494.888 39.5668 495.648 43.6823 495.648 48.3755V50.5415C495.648 55.4513 494.888 59.7473 493.369 63.4296C491.85 67.1119 489.753 70.1805 487.077 72.6354C484.473 75.0903 481.435 76.9314 477.963 78.1588C474.491 79.3863 470.803 80 466.897 80ZM466.897 67.87C470.947 67.87 474.311 66.426 476.987 63.5379C479.735 60.6498 481.109 56.3177 481.109 50.5415V48.3755C481.109 43.1047 479.735 39.0975 476.987 36.3538C474.311 33.5379 470.947 32.13 466.897 32.13C462.774 32.13 459.375 33.5379 456.698 36.3538C454.022 39.0975 452.684 43.1047 452.684 48.3755V50.5415C452.684 56.3899 454.022 60.7581 456.698 63.6462C459.375 66.4621 462.774 67.87 466.897 67.87Z" fill="black"/>
<path d="M506.997 21.2996H548.224V33.213H521.318V78.7004H506.997V21.2996Z" fill="black"/>
<path d="M556.874 21.2996H571.195V58.1227L596.8 21.2996H610.036V78.7004H595.715V41.8773L570.11 78.7004H556.874V21.2996Z" fill="black"/>
<path d="M634.702 57.148C630.29 55.704 627.071 53.5379 625.046 50.6498C623.021 47.7617 622.008 44.3682 622.008 40.4693C622.008 37.6534 622.478 35.0903 623.419 32.7798C624.431 30.3971 625.914 28.3755 627.867 26.7148C629.82 24.982 632.279 23.6462 635.244 22.7076C638.282 21.769 641.826 21.2996 645.877 21.2996H673V78.7004H658.679V58.8809H648.372L635.895 78.7004H619.838L634.702 57.148ZM636.329 40.4693C636.329 42.9242 637.125 44.7292 638.716 45.8845C640.38 47.0397 642.586 47.6173 645.334 47.6173H658.679V33.213H645.334C642.586 33.213 640.38 33.8267 638.716 35.0541C637.125 36.2094 636.329 38.0144 636.329 40.4693Z" fill="black"/>
<path fill-rule="evenodd" clip-rule="evenodd" d="M25.7663 52.4026C25.13 52.3517 24.4867 52.3257 23.8372 52.3257C10.6723 52.3257 0 62.998 0 76.1629C0 89.3278 10.6723 100 23.8372 100C37.0021 100 47.6744 89.3278 47.6744 76.1629C47.6744 75.1523 47.6115 74.1565 47.4895 73.179C36.2169 72.2762 27.1561 63.531 25.7663 52.4026Z" fill="black"/>
<path fill-rule="evenodd" clip-rule="evenodd" d="M47.6744 23.8372C47.6744 10.6723 37.0021 1.3079e-06 23.8372 0C10.6723 -2.12975e-06 1.30791e-06 10.6723 0 23.8372C-2.36817e-06 37.0021 10.6723 47.6744 23.8372 47.6744C24.4468 47.6744 25.0511 47.6515 25.6492 47.6066C26.5302 35.8863 35.8863 26.5302 47.6066 25.6492C47.6515 25.0511 47.6744 24.4468 47.6744 23.8372Z" fill="black"/>
<path fill-rule="evenodd" clip-rule="evenodd" d="M73.1789 47.4895C74.1564 47.6115 75.1522 47.6744 76.1628 47.6744C89.3277 47.6744 100 37.0021 100 23.8372C100 10.6723 89.3277 0 76.1628 0C62.9978 -3.08211e-06 52.3256 10.6723 52.3256 23.8372C52.3256 24.4866 52.3515 25.13 52.4025 25.7663C63.5309 27.1561 72.2761 36.2168 73.1789 47.4895Z" fill="black"/>
<path fill-rule="evenodd" clip-rule="evenodd" d="M52.5263 73.0552C52.3939 74.0723 52.3256 75.1096 52.3256 76.1629C52.3256 89.3278 62.9978 100 76.1628 100C89.3277 100 100 89.3278 100 76.1629C100 62.998 89.3277 52.3257 76.1628 52.3257C75.1095 52.3257 74.0722 52.394 73.0551 52.5264C71.6646 63.2058 63.2057 71.6647 52.5263 73.0552Z" fill="black"/>
</g>
<defs>
<clipPath id="clip0_825_3903">
<rect width="673" height="100" fill="white"/>
</clipPath>
</defs>
</svg>
